<?xml version="1.0" encoding="UTF-8"?>
<svg xmlns="http://www.w3.org/2000/svg" width="32" height="32" viewBox="0 0 32 32" shape-rendering="crispEdges">
  <g fill="#682B0F">
    <rect x="2" y="3" width="1" height="1" />
  </g>
  <g fill="#8B3B01">
    <rect x="3" y="3" width="1" height="1" />
  </g>
  <g fill="#000000">
    <rect x="4" y="3" width="4" height="1" />
    <rect x="3" y="4" width="1" height="1" />
    <rect x="7" y="4" width="1" height="1" />
    <rect x="3" y="5" width="2" height="1" />
    <rect x="7" y="5" width="1" height="1" />
    <rect x="7" y="6" width="1" height="1" />
    <rect x="7" y="7" width="1" height="1" />
    <rect x="4" y="8" width="1" height="1" />
    <rect x="7" y="8" width="1" height="1" />
    <rect x="14" y="8" width="2" height="1" />
    <rect x="17" y="8" width="3" height="1" />
    <rect x="21" y="8" width="2" height="1" />
    <rect x="25" y="8" width="2" height="1" />
    <rect x="28" y="8" width="1" height="1" />
    <rect x="4" y="9" width="1" height="1" />
    <rect x="7" y="9" width="1" height="1" />
    <rect x="4" y="10" width="1" height="1" />
    <rect x="7" y="10" width="1" height="1" />
    <rect x="28" y="10" width="1" height="1" />
    <rect x="4" y="11" width="1" height="1" />
    <rect x="7" y="11" width="1" height="1" />
    <rect x="4" y="12" width="1" height="1" />
    <rect x="28" y="12" width="1" height="1" />
    <rect x="4" y="13" width="1" height="1" />
    <rect x="16" y="13" width="1" height="1" />
    <rect x="28" y="13" width="1" height="1" />
    <rect x="4" y="14" width="1" height="1" />
    <rect x="16" y="14" width="1" height="1" />
    <rect x="28" y="14" width="1" height="1" />
    <rect x="4" y="15" width="1" height="1" />
    <rect x="8" y="15" width="3" height="1" />
    <rect x="16" y="15" width="1" height="1" />
    <rect x="8" y="16" width="3" height="1" />
    <rect x="16" y="16" width="1" height="1" />
    <rect x="4" y="17" width="1" height="1" />
    <rect x="8" y="17" width="3" height="1" />
    <rect x="28" y="17" width="1" height="1" />
    <rect x="4" y="18" width="1" height="1" />
    <rect x="8" y="18" width="2" height="1" />
    <rect x="28" y="18" width="1" height="1" />
    <rect x="4" y="19" width="1" height="1" />
    <rect x="16" y="19" width="1" height="1" />
    <rect x="28" y="19" width="1" height="1" />
    <rect x="4" y="20" width="1" height="1" />
    <rect x="7" y="20" width="4" height="1" />
    <rect x="13" y="20" width="3" height="1" />
    <rect x="28" y="20" width="1" height="1" />
    <rect x="4" y="21" width="1" height="1" />
    <rect x="7" y="21" width="1" height="1" />
    <rect x="28" y="21" width="1" height="1" />
    <rect x="4" y="22" width="1" height="1" />
    <rect x="7" y="22" width="1" height="1" />
    <rect x="14" y="22" width="1" height="1" />
    <rect x="16" y="22" width="6" height="1" />
    <rect x="23" y="22" width="1" height="1" />
    <rect x="25" y="22" width="4" height="1" />
    <rect x="4" y="23" width="1" height="1" />
    <rect x="7" y="23" width="1" height="1" />
    <rect x="13" y="23" width="2" height="1" />
    <rect x="21" y="23" width="1" height="1" />
    <rect x="26" y="23" width="1" height="1" />
    <rect x="4" y="24" width="1" height="1" />
    <rect x="7" y="24" width="2" height="1" />
    <rect x="10" y="24" width="2" height="1" />
    <rect x="13" y="24" width="2" height="1" />
    <rect x="26" y="24" width="1" height="1" />
    <rect x="7" y="25" width="1" height="1" />
    <rect x="14" y="25" width="1" height="1" />
    <rect x="19" y="25" width="5" height="1" />
    <rect x="25" y="25" width="2" height="1" />
    <rect x="4" y="26" width="1" height="1" />
    <rect x="7" y="26" width="1" height="1" />
    <rect x="4" y="27" width="1" height="1" />
    <rect x="7" y="27" width="1" height="1" />
    <rect x="7" y="28" width="1" height="1" />
  </g>
  <g fill="#151310">
    <rect x="2" y="4" width="1" height="1" />
  </g>
  <g fill="#B25003">
    <rect x="4" y="4" width="1" height="1" />
  </g>
  <g fill="#D47201">
    <rect x="5" y="4" width="1" height="1" />
  </g>
  <g fill="#923E00">
    <rect x="6" y="4" width="1" height="1" />
  </g>
  <g fill="#232221">
    <rect x="2" y="5" width="1" height="1" />
  </g>
  <g fill="#732F00">
    <rect x="5" y="5" width="1" height="1" />
  </g>
  <g fill="#C96800">
    <rect x="6" y="5" width="1" height="1" />
  </g>
  <g fill="#010000">
    <rect x="4" y="6" width="1" height="1" />
    <rect x="27" y="8" width="1" height="1" />
    <rect x="14" y="12" width="1" height="1" />
    <rect x="16" y="12" width="1" height="1" />
    <rect x="28" y="15" width="1" height="1" />
    <rect x="28" y="16" width="1" height="1" />
    <rect x="24" y="22" width="1" height="1" />
    <rect x="18" y="25" width="1" height="1" />
    <rect x="24" y="25" width="1" height="1" />
  </g>
  <g fill="#934200">
    <rect x="5" y="6" width="1" height="1" />
  </g>
  <g fill="#7F94AA">
    <rect x="6" y="6" width="1" height="1" />
  </g>
  <g fill="#000001">
    <rect x="4" y="7" width="1" height="1" />
    <rect x="8" y="8" width="1" height="1" />
    <rect x="10" y="8" width="1" height="1" />
    <rect x="13" y="8" width="1" height="1" />
    <rect x="16" y="8" width="1" height="1" />
    <rect x="20" y="8" width="1" height="1" />
    <rect x="23" y="8" width="1" height="1" />
    <rect x="28" y="11" width="1" height="1" />
    <rect x="4" y="16" width="1" height="1" />
    <rect x="16" y="17" width="1" height="1" />
    <rect x="16" y="18" width="1" height="1" />
    <rect x="12" y="20" width="1" height="1" />
    <rect x="9" y="24" width="1" height="1" />
    <rect x="4" y="25" width="1" height="1" />
    <rect x="15" y="25" width="3" height="1" />
  </g>
  <g fill="#904000">
    <rect x="5" y="7" width="1" height="1" />
  </g>
  <g fill="#768AA0">
    <rect x="6" y="7" width="1" height="1" />
  </g>
  <g fill="#D87711">
    <rect x="5" y="8" width="1" height="1" />
  </g>
  <g fill="#933800">
    <rect x="6" y="8" width="1" height="1" />
  </g>
  <g fill="#000100">
    <rect x="9" y="8" width="1" height="1" />
    <rect x="28" y="9" width="1" height="1" />
    <rect x="13" y="22" width="1" height="1" />
    <rect x="4" y="28" width="1" height="1" />
  </g>
  <g fill="#010001">
    <rect x="11" y="8" width="1" height="1" />
  </g>
  <g fill="#000002">
    <rect x="12" y="8" width="1" height="1" />
    <rect x="8" y="12" width="1" height="1" />
    <rect x="22" y="22" width="1" height="1" />
  </g>
  <g fill="#000200">
    <rect x="24" y="8" width="1" height="1" />
  </g>
  <g fill="#974100">
    <rect x="5" y="9" width="1" height="1" />
  </g>
  <g fill="#8191A2">
    <rect x="6" y="9" width="1" height="1" />
  </g>
  <g fill="#0F794E">
    <rect x="8" y="9" width="1" height="1" />
  </g>
  <g fill="#31965A">
    <rect x="9" y="9" width="1" height="1" />
  </g>
  <g fill="#379C5D">
    <rect x="10" y="9" width="1" height="1" />
  </g>
  <g fill="#38A15E">
    <rect x="11" y="9" width="1" height="1" />
  </g>
  <g fill="#329858">
    <rect x="12" y="9" width="1" height="1" />
  </g>
  <g fill="#158054">
    <rect x="13" y="9" width="1" height="1" />
  </g>
  <g fill="#158052">
    <rect x="14" y="9" width="1" height="1" />
  </g>
  <g fill="#309759">
    <rect x="15" y="9" width="1" height="1" />
  </g>
  <g fill="#339957">
    <rect x="16" y="9" width="1" height="1" />
  </g>
  <g fill="#329A5A">
    <rect x="17" y="9" width="1" height="1" />
  </g>
  <g fill="#309857">
    <rect x="18" y="9" width="1" height="1" />
  </g>
  <g fill="#0F7D50">
    <rect x="19" y="9" width="1" height="1" />
  </g>
  <g fill="#A94B00">
    <rect x="20" y="9" width="1" height="1" />
  </g>
  <g fill="#A64B02">
    <rect x="21" y="9" width="1" height="1" />
  </g>
  <g fill="#DB7B03">
    <rect x="22" y="9" width="1" height="1" />
  </g>
  <g fill="#AB4C00">
    <rect x="23" y="9" width="1" height="1" />
  </g>
  <g fill="#D06A00">
    <rect x="24" y="9" width="1" height="1" />
  </g>
  <g fill="#C66701">
    <rect x="25" y="9" width="1" height="1" />
  </g>
  <g fill="#C26100">
    <rect x="26" y="9" width="1" height="1" />
  </g>
  <g fill="#933F00">
    <rect x="27" y="9" width="1" height="1" />
  </g>
  <g fill="#8A3600">
    <rect x="5" y="10" width="1" height="1" />
  </g>
  <g fill="#C1C5C7">
    <rect x="6" y="10" width="1" height="1" />
  </g>
  <g fill="#1A845A">
    <rect x="8" y="10" width="1" height="1" />
  </g>
  <g fill="#309B5A">
    <rect x="9" y="10" width="1" height="1" />
    <rect x="17" y="14" width="1" height="1" />
    <rect x="24" y="15" width="1" height="1" />
  </g>
  <g fill="#329C59">
    <rect x="10" y="10" width="1" height="1" />
  </g>
  <g fill="#319C5A">
    <rect x="11" y="10" width="1" height="1" />
  </g>
  <g fill="#37A060">
    <rect x="12" y="10" width="1" height="1" />
  </g>
  <g fill="#178256">
    <rect x="13" y="10" width="1" height="1" />
    <rect x="19" y="15" width="1" height="1" />
    <rect x="27" y="16" width="1" height="1" />
  </g>
  <g fill="#168356">
    <rect x="14" y="10" width="1" height="1" />
  </g>
  <g fill="#37A360">
    <rect x="15" y="10" width="1" height="1" />
  </g>
  <g fill="#36A05D">
    <rect x="16" y="10" width="1" height="1" />
  </g>
  <g fill="#2F9958">
    <rect x="17" y="10" width="1" height="1" />
  </g>
  <g fill="#339B59">
    <rect x="18" y="10" width="1" height="1" />
  </g>
  <g fill="#117A4C">
    <rect x="19" y="10" width="1" height="1" />
  </g>
  <g fill="#B15909">
    <rect x="20" y="10" width="1" height="1" />
  </g>
  <g fill="#984E00">
    <rect x="21" y="10" width="1" height="1" />
  </g>
  <g fill="#D67303">
    <rect x="22" y="10" width="1" height="1" />
  </g>
  <g fill="#AA4500">
    <rect x="23" y="10" width="1" height="1" />
  </g>
  <g fill="#E07908">
    <rect x="24" y="10" width="1" height="1" />
  </g>
  <g fill="#D97302">
    <rect x="25" y="10" width="1" height="1" />
  </g>
  <g fill="#DC7B05">
    <rect x="26" y="10" width="1" height="1" />
  </g>
  <g fill="#9C4704">
    <rect x="27" y="10" width="1" height="1" />
  </g>
  <g fill="#CC6905">
    <rect x="5" y="11" width="1" height="1" />
  </g>
  <g fill="#249B6C">
    <rect x="8" y="11" width="1" height="1" />
  </g>
  <g fill="#259E73">
    <rect x="9" y="11" width="1" height="1" />
  </g>
  <g fill="#41A669">
    <rect x="10" y="11" width="1" height="1" />
  </g>
  <g fill="#40AB6A">
    <rect x="11" y="11" width="1" height="1" />
  </g>
  <g fill="#239467">
    <rect x="12" y="11" width="1" height="1" />
  </g>
  <g fill="#279E70">
    <rect x="13" y="11" width="1" height="1" />
  </g>
  <g fill="#279C71">
    <rect x="14" y="11" width="1" height="1" />
  </g>
  <g fill="#2A9C73">
    <rect x="15" y="11" width="1" height="1" />
  </g>
  <g fill="#209B6D">
    <rect x="16" y="11" width="1" height="1" />
  </g>
  <g fill="#37A263">
    <rect x="17" y="11" width="1" height="1" />
  </g>
  <g fill="#2D9655">
    <rect x="18" y="11" width="1" height="1" />
  </g>
  <g fill="#319856">
    <rect x="19" y="11" width="1" height="1" />
  </g>
  <g fill="#329B5A">
    <rect x="20" y="11" width="1" height="1" />
  </g>
  <g fill="#3BA25E">
    <rect x="21" y="11" width="1" height="1" />
  </g>
  <g fill="#E4861E">
    <rect x="22" y="11" width="1" height="1" />
  </g>
  <g fill="#D26A00">
    <rect x="23" y="11" width="1" height="1" />
  </g>
  <g fill="#158153">
    <rect x="24" y="11" width="1" height="1" />
  </g>
  <g fill="#E27A16">
    <rect x="25" y="11" width="1" height="1" />
  </g>
  <g fill="#933F02">
    <rect x="26" y="11" width="1" height="1" />
  </g>
  <g fill="#712A00">
    <rect x="27" y="11" width="1" height="1" />
  </g>
  <g fill="#AE4E02">
    <rect x="5" y="12" width="1" height="1" />
  </g>
  <g fill="#F38A09">
    <rect x="6" y="12" width="1" height="1" />
  </g>
  <g fill="#060304">
    <rect x="7" y="12" width="1" height="1" />
  </g>
  <g fill="#050202">
    <rect x="9" y="12" width="1" height="1" />
  </g>
  <g fill="#040406">
    <rect x="10" y="12" width="1" height="1" />
  </g>
  <g fill="#030203">
    <rect x="11" y="12" width="1" height="1" />
  </g>
  <g fill="#000400">
    <rect x="12" y="12" width="1" height="1" />
  </g>
  <g fill="#030301">
    <rect x="13" y="12" width="1" height="1" />
  </g>
  <g fill="#020101">
    <rect x="15" y="12" width="1" height="1" />
  </g>
  <g fill="#198457">
    <rect x="17" y="12" width="1" height="1" />
  </g>
  <g fill="#369F5C">
    <rect x="18" y="12" width="1" height="1" />
  </g>
  <g fill="#319958">
    <rect x="19" y="12" width="1" height="1" />
  </g>
  <g fill="#359E5C">
    <rect x="20" y="12" width="1" height="1" />
  </g>
  <g fill="#076A55">
    <rect x="21" y="12" width="1" height="1" />
  </g>
  <g fill="#096F5B">
    <rect x="22" y="12" width="1" height="1" />
  </g>
  <g fill="#319959">
    <rect x="23" y="12" width="1" height="1" />
  </g>
  <g fill="#158254">
    <rect x="24" y="12" width="1" height="1" />
    <rect x="25" y="19" width="1" height="1" />
  </g>
  <g fill="#188357">
    <rect x="25" y="12" width="1" height="1" />
  </g>
  <g fill="#CA6601">
    <rect x="26" y="12" width="1" height="1" />
  </g>
  <g fill="#CC6B01">
    <rect x="27" y="12" width="1" height="1" />
  </g>
  <g fill="#EA8907">
    <rect x="5" y="13" width="1" height="1" />
  </g>
  <g fill="#C7CCCF">
    <rect x="7" y="13" width="1" height="1" />
  </g>
  <g fill="#EC8806">
    <rect x="8" y="13" width="1" height="1" />
  </g>
  <g fill="#C1C8CB">
    <rect x="9" y="13" width="1" height="1" />
  </g>
  <g fill="#C4C8CD">
    <rect x="10" y="13" width="1" height="1" />
  </g>
  <g fill="#C3C8CB">
    <rect x="11" y="13" width="1" height="1" />
  </g>
  <g fill="#B15201">
    <rect x="12" y="13" width="1" height="1" />
  </g>
  <g fill="#B04F00">
    <rect x="13" y="13" width="1" height="1" />
  </g>
  <g fill="#7C8A99">
    <rect x="14" y="13" width="1" height="1" />
  </g>
  <g fill="#82909D">
    <rect x="15" y="13" width="1" height="1" />
  </g>
  <g fill="#178357">
    <rect x="17" y="13" width="1" height="1" />
  </g>
  <g fill="#148054">
    <rect x="18" y="13" width="1" height="1" />
    <rect x="20" y="19" width="1" height="1" />
  </g>
  <g fill="#309959">
    <rect x="19" y="13" width="1" height="1" />
  </g>
  <g fill="#066D55">
    <rect x="20" y="13" width="1" height="1" />
  </g>
  <g fill="#046954">
    <rect x="21" y="13" width="1" height="1" />
  </g>
  <g fill="#188358">
    <rect x="22" y="13" width="1" height="1" />
  </g>
  <g fill="#319B59">
    <rect x="23" y="13" width="1" height="1" />
  </g>
  <g fill="#329B59">
    <rect x="24" y="13" width="1" height="1" />
  </g>
  <g fill="#128052">
    <rect x="25" y="13" width="1" height="1" />
  </g>
  <g fill="#168155">
    <rect x="26" y="13" width="1" height="1" />
  </g>
  <g fill="#D06902">
    <rect x="27" y="13" width="1" height="1" />
  </g>
  <g fill="#923E02">
    <rect x="5" y="14" width="1" height="1" />
  </g>
  <g fill="#596171">
    <rect x="7" y="14" width="1" height="1" />
  </g>
  <g fill="#77808D">
    <rect x="8" y="14" width="1" height="1" />
  </g>
  <g fill="#757E8C">
    <rect x="9" y="14" width="1" height="1" />
  </g>
  <g fill="#7F8591">
    <rect x="10" y="14" width="1" height="1" />
  </g>
  <g fill="#C2C5C8">
    <rect x="11" y="14" width="1" height="1" />
  </g>
  <g fill="#838F9F">
    <rect x="12" y="14" width="1" height="1" />
  </g>
  <g fill="#AD4D01">
    <rect x="13" y="14" width="1" height="1" />
  </g>
  <g fill="#B35301">
    <rect x="14" y="14" width="1" height="1" />
  </g>
  <g fill="#818C9D">
    <rect x="15" y="14" width="1" height="1" />
  </g>
  <g fill="#168355">
    <rect x="18" y="14" width="1" height="1" />
  </g>
  <g fill="#168255">
    <rect x="19" y="14" width="1" height="1" />
    <rect x="19" y="18" width="1" height="1" />
  </g>
  <g fill="#01694F">
    <rect x="20" y="14" width="1" height="1" />
  </g>
  <g fill="#0B7159">
    <rect x="21" y="14" width="1" height="1" />
  </g>
  <g fill="#036953">
    <rect x="22" y="14" width="1" height="1" />
  </g>
  <g fill="#35A05F">
    <rect x="23" y="14" width="1" height="1" />
  </g>
  <g fill="#309A57">
    <rect x="24" y="14" width="1" height="1" />
  </g>
  <g fill="#2C9757">
    <rect x="25" y="14" width="1" height="1" />
  </g>
  <g fill="#0F7C52">
    <rect x="26" y="14" width="1" height="1" />
  </g>
  <g fill="#158255">
    <rect x="27" y="14" width="1" height="1" />
    <rect x="21" y="19" width="1" height="1" />
  </g>
  <g fill="#9F4305">
    <rect x="5" y="15" width="1" height="1" />
  </g>
  <g fill="#535C70">
    <rect x="7" y="15" width="1" height="1" />
  </g>
  <g fill="#C5C9CC">
    <rect x="11" y="15" width="1" height="1" />
  </g>
  <g fill="#7F8F9F">
    <rect x="12" y="15" width="1" height="1" />
  </g>
  <g fill="#83919F">
    <rect x="13" y="15" width="1" height="1" />
  </g>
  <g fill="#AF4D00">
    <rect x="14" y="15" width="1" height="1" />
    <rect x="17" y="24" width="1" height="1" />
  </g>
  <g fill="#8693A4">
    <rect x="15" y="15" width="1" height="1" />
  </g>
  <g fill="#1A8759">
    <rect x="17" y="15" width="1" height="1" />
    <rect x="18" y="19" width="1" height="1" />
  </g>
  <g fill="#188456">
    <rect x="18" y="15" width="1" height="1" />
    <rect x="17" y="17" width="1" height="1" />
    <rect x="10" y="22" width="1" height="1" />
  </g>
  <g fill="#148055">
    <rect x="20" y="15" width="1" height="1" />
  </g>
  <g fill="#076D56">
    <rect x="21" y="15" width="1" height="1" />
  </g>
  <g fill="#076F58">
    <rect x="22" y="15" width="1" height="1" />
  </g>
  <g fill="#1C865A">
    <rect x="23" y="15" width="1" height="1" />
  </g>
  <g fill="#1A8558">
    <rect x="25" y="15" width="1" height="1" />
  </g>
  <g fill="#178356">
    <rect x="26" y="15" width="1" height="1" />
  </g>
  <g fill="#127E51">
    <rect x="27" y="15" width="1" height="1" />
  </g>
  <g fill="#127F51">
    <rect x="5" y="16" width="1" height="1" />
  </g>
  <g fill="#545C6F">
    <rect x="7" y="16" width="1" height="1" />
  </g>
  <g fill="#C1C4C9">
    <rect x="11" y="16" width="1" height="1" />
  </g>
  <g fill="#7A8894">
    <rect x="12" y="16" width="1" height="1" />
  </g>
  <g fill="#818F9E">
    <rect x="13" y="16" width="1" height="1" />
  </g>
  <g fill="#8490A2">
    <rect x="14" y="16" width="1" height="1" />
  </g>
  <g fill="#8392A1">
    <rect x="15" y="16" width="1" height="1" />
    <rect x="15" y="18" width="1" height="1" />
  </g>
  <g fill="#127E52">
    <rect x="17" y="16" width="1" height="1" />
  </g>
  <g fill="#158356">
    <rect x="18" y="16" width="1" height="1" />
  </g>
  <g fill="#17865C">
    <rect x="19" y="16" width="1" height="1" />
  </g>
  <g fill="#10745D">
    <rect x="20" y="16" width="1" height="1" />
  </g>
  <g fill="#08705B">
    <rect x="21" y="16" width="1" height="1" />
  </g>
  <g fill="#118152">
    <rect x="22" y="16" width="1" height="1" />
  </g>
  <g fill="#188556">
    <rect x="23" y="16" width="1" height="1" />
    <rect x="11" y="23" width="1" height="1" />
  </g>
  <g fill="#188657">
    <rect x="24" y="16" width="1" height="1" />
  </g>
  <g fill="#19885B">
    <rect x="25" y="16" width="1" height="1" />
  </g>
  <g fill="#1B8658">
    <rect x="26" y="16" width="1" height="1" />
  </g>
  <g fill="#178757">
    <rect x="5" y="17" width="1" height="1" />
  </g>
  <g fill="#DB7800">
    <rect x="6" y="17" width="1" height="1" />
  </g>
  <g fill="#565E72">
    <rect x="7" y="17" width="1" height="1" />
  </g>
  <g fill="#E88804">
    <rect x="11" y="17" width="1" height="1" />
  </g>
  <g fill="#A24600">
    <rect x="12" y="17" width="1" height="1" />
  </g>
  <g fill="#808B98">
    <rect x="13" y="17" width="1" height="1" />
  </g>
  <g fill="#7F8FA2">
    <rect x="14" y="17" width="1" height="1" />
  </g>
  <g fill="#82919E">
    <rect x="15" y="17" width="1" height="1" />
  </g>
  <g fill="#148353">
    <rect x="18" y="17" width="1" height="1" />
  </g>
  <g fill="#076A54">
    <rect x="19" y="17" width="1" height="1" />
  </g>
  <g fill="#056955">
    <rect x="20" y="17" width="1" height="1" />
  </g>
  <g fill="#076C55">
    <rect x="21" y="17" width="1" height="1" />
  </g>
  <g fill="#076D54">
    <rect x="22" y="17" width="1" height="1" />
  </g>
  <g fill="#117E50">
    <rect x="23" y="17" width="1" height="1" />
  </g>
  <g fill="#1B8659">
    <rect x="24" y="17" width="1" height="1" />
  </g>
  <g fill="#CC6600">
    <rect x="25" y="17" width="1" height="1" />
  </g>
  <g fill="#158357">
    <rect x="26" y="17" width="1" height="1" />
  </g>
  <g fill="#036A51">
    <rect x="27" y="17" width="1" height="1" />
  </g>
  <g fill="#CF6B07">
    <rect x="5" y="18" width="1" height="1" />
  </g>
  <g fill="#C7CBCF">
    <rect x="6" y="18" width="1" height="1" />
  </g>
  <g fill="#AC4C00">
    <rect x="7" y="18" width="1" height="1" />
  </g>
  <g fill="#9F4700">
    <rect x="10" y="18" width="1" height="1" />
  </g>
  <g fill="#9C4601">
    <rect x="12" y="18" width="1" height="1" />
  </g>
  <g fill="#9F4502">
    <rect x="13" y="18" width="1" height="1" />
  </g>
  <g fill="#9CA7AF">
    <rect x="14" y="18" width="1" height="1" />
  </g>
  <g fill="#117B4E">
    <rect x="17" y="18" width="1" height="1" />
  </g>
  <g fill="#158355">
    <rect x="18" y="18" width="1" height="1" />
  </g>
  <g fill="#026751">
    <rect x="20" y="18" width="1" height="1" />
  </g>
  <g fill="#168256">
    <rect x="21" y="18" width="1" height="1" />
  </g>
  <g fill="#168154">
    <rect x="22" y="18" width="1" height="1" />
  </g>
  <g fill="#117E51">
    <rect x="23" y="18" width="1" height="1" />
  </g>
  <g fill="#188557">
    <rect x="24" y="18" width="1" height="1" />
  </g>
  <g fill="#1D8A5C">
    <rect x="25" y="18" width="1" height="1" />
  </g>
  <g fill="#C76600">
    <rect x="26" y="18" width="1" height="1" />
  </g>
  <g fill="#984402">
    <rect x="27" y="18" width="1" height="1" />
  </g>
  <g fill="#D06B01">
    <rect x="5" y="19" width="1" height="1" />
  </g>
  <g fill="#EF9318">
    <rect x="8" y="19" width="1" height="1" />
  </g>
  <g fill="#C3C8C9">
    <rect x="10" y="19" width="1" height="1" />
  </g>
  <g fill="#8A4E1A">
    <rect x="12" y="19" width="1" height="1" />
  </g>
  <g fill="#93979C">
    <rect x="13" y="19" width="1" height="1" />
  </g>
  <g fill="#9097A1">
    <rect x="14" y="19" width="1" height="1" />
  </g>
  <g fill="#65676B">
    <rect x="15" y="19" width="1" height="1" />
  </g>
  <g fill="#148253">
    <rect x="17" y="19" width="1" height="1" />
  </g>
  <g fill="#167F56">
    <rect x="19" y="19" width="1" height="1" />
  </g>
  <g fill="#137E51">
    <rect x="22" y="19" width="1" height="1" />
  </g>
  <g fill="#158154">
    <rect x="23" y="19" width="1" height="1" />
  </g>
  <g fill="#CD6803">
    <rect x="24" y="19" width="1" height="1" />
  </g>
  <g fill="#7F3501">
    <rect x="26" y="19" width="1" height="1" />
  </g>
  <g fill="#CC6804">
    <rect x="27" y="19" width="1" height="1" />
  </g>
  <g fill="#733303">
    <rect x="5" y="20" width="1" height="1" />
  </g>
  <g fill="#A14A0B">
    <rect x="6" y="20" width="1" height="1" />
  </g>
  <g fill="#000102">
    <rect x="11" y="20" width="1" height="1" />
    <rect x="15" y="22" width="1" height="1" />
  </g>
  <g fill="#010003">
    <rect x="16" y="20" width="1" height="1" />
  </g>
  <g fill="#138053">
    <rect x="17" y="20" width="1" height="1" />
  </g>
  <g fill="#138052">
    <rect x="18" y="20" width="1" height="1" />
  </g>
  <g fill="#349E5E">
    <rect x="19" y="20" width="1" height="1" />
  </g>
  <g fill="#188457">
    <rect x="20" y="20" width="1" height="1" />
  </g>
  <g fill="#178557">
    <rect x="21" y="20" width="1" height="1" />
    <rect x="10" y="23" width="1" height="1" />
  </g>
  <g fill="#DF7B04">
    <rect x="22" y="20" width="1" height="1" />
  </g>
  <g fill="#138351">
    <rect x="23" y="20" width="1" height="1" />
  </g>
  <g fill="#D26D01">
    <rect x="24" y="20" width="1" height="1" />
  </g>
  <g fill="#D67101">
    <rect x="25" y="20" width="1" height="1" />
  </g>
  <g fill="#813700">
    <rect x="26" y="20" width="1" height="1" />
  </g>
  <g fill="#883A02">
    <rect x="27" y="20" width="1" height="1" />
  </g>
  <g fill="#934103">
    <rect x="5" y="21" width="1" height="1" />
  </g>
  <g fill="#BFC3CB">
    <rect x="6" y="21" width="1" height="1" />
  </g>
  <g fill="#056A55">
    <rect x="8" y="21" width="1" height="1" />
  </g>
  <g fill="#086A54">
    <rect x="9" y="21" width="1" height="1" />
  </g>
  <g fill="#198458">
    <rect x="10" y="21" width="1" height="1" />
  </g>
  <g fill="#00634E">
    <rect x="11" y="21" width="1" height="1" />
  </g>
  <g fill="#046C56">
    <rect x="12" y="21" width="1" height="1" />
  </g>
  <g fill="#036B55">
    <rect x="13" y="21" width="1" height="1" />
  </g>
  <g fill="#056C54">
    <rect x="14" y="21" width="1" height="1" />
  </g>
  <g fill="#046852">
    <rect x="15" y="21" width="1" height="1" />
  </g>
  <g fill="#016A52">
    <rect x="16" y="21" width="1" height="1" />
  </g>
  <g fill="#188052">
    <rect x="17" y="21" width="1" height="1" />
  </g>
  <g fill="#188359">
    <rect x="18" y="21" width="1" height="1" />
  </g>
  <g fill="#198558">
    <rect x="19" y="21" width="1" height="1" />
  </g>
  <g fill="#198356">
    <rect x="20" y="21" width="1" height="1" />
  </g>
  <g fill="#158156">
    <rect x="21" y="21" width="1" height="1" />
  </g>
  <g fill="#1B8459">
    <rect x="22" y="21" width="1" height="1" />
  </g>
  <g fill="#B24D00">
    <rect x="23" y="21" width="1" height="1" />
  </g>
  <g fill="#B75403">
    <rect x="24" y="21" width="1" height="1" />
  </g>
  <g fill="#793503">
    <rect x="25" y="21" width="1" height="1" />
  </g>
  <g fill="#953F00">
    <rect x="26" y="21" width="1" height="1" />
  </g>
  <g fill="#9E4200">
    <rect x="27" y="21" width="1" height="1" />
  </g>
  <g fill="#904001">
    <rect x="5" y="22" width="1" height="1" />
  </g>
  <g fill="#C35F00">
    <rect x="6" y="22" width="1" height="1" />
  </g>
  <g fill="#026752">
    <rect x="8" y="22" width="1" height="1" />
  </g>
  <g fill="#158055">
    <rect x="9" y="22" width="1" height="1" />
  </g>
  <g fill="#178455">
    <rect x="11" y="22" width="1" height="1" />
  </g>
  <g fill="#148155">
    <rect x="12" y="22" width="1" height="1" />
  </g>
  <g fill="#BF5A00">
    <rect x="5" y="23" width="1" height="1" />
  </g>
  <g fill="#C05D00">
    <rect x="6" y="23" width="1" height="1" />
  </g>
  <g fill="#046A55">
    <rect x="8" y="23" width="1" height="1" />
  </g>
  <g fill="#056B55">
    <rect x="9" y="23" width="1" height="1" />
  </g>
  <g fill="#188659">
    <rect x="12" y="23" width="1" height="1" />
  </g>
  <g fill="#E78904">
    <rect x="15" y="23" width="1" height="1" />
  </g>
  <g fill="#E48500">
    <rect x="16" y="23" width="1" height="1" />
  </g>
  <g fill="#934101">
    <rect x="17" y="23" width="1" height="1" />
  </g>
  <g fill="#EEB120">
    <rect x="18" y="23" width="1" height="1" />
  </g>
  <g fill="#994300">
    <rect x="19" y="23" width="1" height="1" />
  </g>
  <g fill="#EBA91B">
    <rect x="20" y="23" width="1" height="1" />
  </g>
  <g fill="#EBAC1D">
    <rect x="22" y="23" width="1" height="1" />
  </g>
  <g fill="#AA4C01">
    <rect x="23" y="23" width="1" height="1" />
  </g>
  <g fill="#E6A81C">
    <rect x="24" y="23" width="1" height="1" />
  </g>
  <g fill="#722000">
    <rect x="25" y="23" width="1" height="1" />
  </g>
  <g fill="#8D3F03">
    <rect x="5" y="24" width="1" height="1" />
  </g>
  <g fill="#C56100">
    <rect x="6" y="24" width="1" height="1" />
  </g>
  <g fill="#010100">
    <rect x="12" y="24" width="1" height="1" />
  </g>
  <g fill="#CB6801">
    <rect x="15" y="24" width="1" height="1" />
  </g>
  <g fill="#ECAD1E">
    <rect x="16" y="24" width="1" height="1" />
    <rect x="20" y="24" width="1" height="1" />
  </g>
  <g fill="#ECAD1B">
    <rect x="18" y="24" width="1" height="1" />
  </g>
  <g fill="#A34400">
    <rect x="19" y="24" width="1" height="1" />
  </g>
  <g fill="#030101">
    <rect x="21" y="24" width="1" height="1" />
  </g>
  <g fill="#EEAF21">
    <rect x="22" y="24" width="1" height="1" />
  </g>
  <g fill="#B25002">
    <rect x="23" y="24" width="1" height="1" />
  </g>
  <g fill="#EAAC1A">
    <rect x="24" y="24" width="1" height="1" />
  </g>
  <g fill="#852900">
    <rect x="25" y="24" width="1" height="1" />
  </g>
  <g fill="#8B3C01">
    <rect x="5" y="25" width="1" height="1" />
  </g>
  <g fill="#974301">
    <rect x="6" y="25" width="1" height="1" />
  </g>
  <g fill="#C55F00">
    <rect x="5" y="26" width="1" height="1" />
  </g>
  <g fill="#3E5B76">
    <rect x="6" y="26" width="1" height="1" />
  </g>
  <g fill="#883400">
    <rect x="5" y="27" width="1" height="1" />
  </g>
  <g fill="#A04804">
    <rect x="6" y="27" width="1" height="1" />
  </g>
  <g fill="#000101">
    <rect x="5" y="28" width="1" height="1" />
  </g>
  <g fill="#C15D00">
    <rect x="6" y="28" width="1" height="1" />
  </g>
</svg>